<?xml version="1.0" encoding="UTF-8" standalone="no"?>
<!-- Created with Inkscape (http://www.inkscape.org/) -->

<svg
  xmlns:dc="http://purl.org/dc/elements/1.1/"
  xmlns:cc="http://creativecommons.org/ns#"
  xmlns:rdf="http://www.w3.org/1999/02/22-rdf-syntax-ns#"
  xmlns:sodipodi="http://sodipodi.sourceforge.net/DTD/sodipodi-0.dtd"
  xmlns:inkscape="http://www.inkscape.org/namespaces/inkscape"
  xmlns="http://www.w3.org/2000/svg"
  width="32.416729mm"
  height="31.922861mm"
  viewBox="0 0 32.416729 31.922861"
  version="1.1"
  id="svg2027"
  inkscape:version="0.92.4 (5da689c313, 2019-01-14)"
  sodipodi:docname="logo.svg">
  <defs
    id="defs2021">
    <clipPath
      clipPathUnits="userSpaceOnUse"
      id="clipPath966">
      <path
        d="M 36,521.222 H 162.527 V 647.749 H 36 Z"
        id="path964"
        inkscape:connector-curvature="0"/>
    </clipPath>
  </defs>
  <sodipodi:namedview
    id="base"
    pagecolor="#ffffff"
    bordercolor="#666666"
    borderopacity="1.0"
    inkscape:pageopacity="0.0"
    inkscape:pageshadow="2"
    inkscape:zoom="0.35"
    inkscape:cx="-403.02575"
    inkscape:cy="59.393403"
    inkscape:document-units="mm"
    inkscape:current-layer="layer1"
    showgrid="false"
    fit-margin-top="0"
    fit-margin-left="0"
    fit-margin-right="0"
    fit-margin-bottom="0"
    inkscape:window-width="1479"
    inkscape:window-height="796"
    inkscape:window-x="1139"
    inkscape:window-y="274"
    inkscape:window-maximized="0"/>
  <metadata
    id="metadata2024">
    <rdf:RDF>
      <cc:Work
        rdf:about="">
        <dc:format>image/svg+xml</dc:format>
        <dc:type
          rdf:resource="http://purl.org/dc/dcmitype/StillImage"/>
        <dc:title></dc:title>
      </cc:Work>
    </rdf:RDF>
  </metadata>
  <g
    inkscape:label="Layer 1"
    inkscape:groupmode="layer"
    id="layer1"
    transform="translate(33.217295,-132.62496)">
    <g
      id="g2610"
      transform="translate(-9.6347768e-7,-0.24693808)">
      <g
        id="g960"
        transform="matrix(0.35277777,0,0,-0.35277777,-52.02692,353.25595)">
        <g
          clip-path="url(#clipPath966)"
          id="g962">
          <g
            transform="translate(108.0098,594.4388)"
            id="g968">
            <path
              inkscape:connector-curvature="0"
              id="path970"
              style="fill:#1b402f;fill-opacity:1;fill-rule:nonzero;stroke:none"
              d="m 0,0 c 0.468,-0.829 0.818,-2.1 0.824,-2.653 0.013,-1.107 -0.453,-0.971 -1.316,-0.136 -1.205,1.169 -2.603,1.417 -3.445,1.12 -0.966,-0.341 -2.976,-1.689 -2.883,-4.687 0.001,-0.036 -0.008,-0.076 -0.037,-0.098 -0.019,-0.015 -0.09,-0.015 -0.128,-0.013 -1.164,0.046 -1.334,0.066 -1.733,0.053 -0.399,0.013 -0.602,-0.003 -1.78,-0.052 -0.037,-0.002 -0.059,-0.005 -0.085,0.012 -0.028,0.019 -0.035,0.048 -0.033,0.079 0.102,3.011 -1.915,4.364 -2.883,4.706 -0.842,0.297 -2.24,0.049 -3.446,-1.12 -0.861,-0.835 -1.328,-0.971 -1.316,0.136 0.007,0.553 0.357,1.824 0.824,2.653 0.468,0.829 1.51,4.018 7.541,4.018 0.85,0 1.874,0.001 2.355,0 C -1.509,4.018 -0.467,0.829 0,0 M 28.105,16.637 C 26.631,15.429 24.054,13.231 24.014,9.295 24.011,9.041 23.941,8.498 23.918,8.247 23.807,7.033 23.332,6.31 22.639,7.632 c -0.186,0.354 -0.51,0.942 -0.815,1.421 -0.897,1.408 -2.096,2.864 -2.096,2.864 -0.773,0.85 -0.549,2.423 0.393,3.115 1.247,0.915 6.533,5.557 8.71,5.557 2.034,0 3.646,-2.586 3.455,-4.436 -0.019,-0.177 -0.138,-0.314 -0.358,-0.17 -0.74,0.483 -2.494,1.744 -3.823,0.654 m -16.33,-39.522 -0.071,-0.06 c -0.188,-0.157 -0.339,-0.077 -0.305,0.115 l 0.01,0.059 c 1.113,6.048 1.633,15.59 -2.479,22.451 -0.02,0.034 -0.056,0.135 -0.044,0.208 0.008,0.054 0.031,0.114 0.097,0.198 0.726,0.922 1.89,1.949 2.883,2.53 2.591,1.518 6.283,-0.023 7.315,-4.166 1.281,-5.132 -2.656,-17.643 -7.406,-21.335 M 8.474,-48.014 8.449,-48.031 c 0,10e-4 0,10e-4 0,10e-4 -0.025,-0.016 -0.05,-0.032 -0.074,-0.047 -5.796,-3.643 -11.228,-4.409 -16.659,-4.409 -0.168,0 -0.37,-0.093 -0.037,-0.295 0.91,-0.554 3.715,-1.726 4.651,-2.252 0.311,-0.175 0.11,-0.234 -0.031,-0.234 -13.732,-0.022 -20.478,5.612 -21.95,7.019 -0.21,0.201 -0.213,0.2 -0.256,0.349 -0.044,0.15 0.063,0.493 0.063,0.493 l 2.753,12.076 c 0.054,0.242 0.391,0.222 0.419,-0.025 l 0.214,-6.99 c 0.176,-1.535 1.152,-2.837 2.534,-3.416 3.476,-1.452 7.272,-2.256 11.248,-2.256 3.949,0 7.721,0.793 11.179,2.228 1.425,0.591 2.546,1.903 2.611,3.52 l 0.204,6.914 c 0.028,0.247 0.366,0.267 0.42,0.025 l 2.805,-12.306 c 0,0 0.093,-0.276 -0.094,-0.394 0.009,0.005 0.017,0.01 0.025,0.016 M -27.318,6.231 c 0,0.839 3.087,-1.422 6.439,-1.422 0.8,0 -0.876,-1.778 -3.543,-1.778 -2.896,0 -2.896,3.2 -2.896,3.2 m 33.465,-3.2 c -2.666,0 -4.343,1.778 -3.542,1.778 3.352,0 6.438,2.261 6.438,1.422 0,0 0,-3.2 -2.896,-3.2 M 2.166,-12.176 c -0.608,0.922 -1.632,2.005 -2.431,2.498 -1.445,0.891 -4.377,1.088 -8.446,1.09 -3.975,0.003 -6.881,-0.195 -8.429,-1.078 -0.804,-0.459 -1.836,-1.581 -2.45,-2.51 -2.735,-4.142 -3.048,-10.376 -3.474,-12.681 -0.036,-0.193 -0.291,-0.22 -0.364,-0.039 -0.923,2.295 -3.873,10.858 0.123,18.087 4.66,8.431 5.352,9.987 6.203,10.688 0.851,0.699 2.003,2.025 8.38,2.026 v 10e-4 c 0.002,0 0.003,-10e-4 0.004,-10e-4 0.002,0 0.003,10e-4 0.003,10e-4 10e-4,-10e-4 10e-4,-10e-4 10e-4,-10e-4 6.377,-0.001 7.529,-1.327 8.38,-2.026 0.005,-0.005 0.012,-0.011 0.017,-0.015 L -0.32,3.879 C 0.038,3.583 0.371,3.133 0.983,2.081 1.707,0.865 2.61,-0.852 3.758,-2.938 c 0.026,-0.047 0.046,-0.09 0.07,-0.135 0.585,-1.067 1.261,-2.301 2.054,-3.736 3.996,-7.229 1.046,-15.792 0.124,-18.087 -0.074,-0.181 -0.329,-0.154 -0.365,0.039 -0.425,2.305 -0.737,8.539 -3.475,12.681 m -20.579,-9.865 c 0,0 0.733,6.241 0.903,7.019 0.207,0.946 0.654,1.717 1.799,2.036 1.472,0.409 4.01,0.953 6.949,0.953 h 0.1 c 2.939,0 5.478,-0.544 6.949,-0.953 1.145,-0.319 1.592,-1.09 1.799,-2.036 0.17,-0.778 0.902,-7.019 0.902,-7.019 0.03,-0.248 -0.285,-0.363 -0.414,-0.152 0,0 -0.909,2.742 -1.633,4.928 -0.55,1.667 -1.855,2.264 -3.092,2.568 -1.464,0.358 -2.992,0.367 -4.561,0.367 -1.569,0 -3.096,-0.009 -4.561,-0.367 -1.237,-0.304 -2.542,-0.901 -3.093,-2.568 -0.723,-2.186 -1.633,-4.928 -1.633,-4.928 -0.127,-0.211 -0.442,-0.096 -0.414,0.152 m 0.364,-15.844 c 0.464,-1.4 2.158,-2.389 3.69,-2.764 1.814,-0.444 3.705,-0.679 5.648,-0.679 1.922,0 3.794,0.23 5.59,0.666 1.57,0.38 3.353,1.356 3.779,2.827 0.315,1.089 2.13,6.469 2.13,6.469 0.158,0.259 0.548,0.117 0.513,-0.189 l -0.722,-9.239 c -0.091,-0.793 -0.592,-1.477 -1.31,-1.767 -3.171,-1.281 -6.517,-1.93 -9.98,-1.93 -3.478,0 -6.837,0.654 -10.02,1.946 -0.693,0.282 -1.177,0.942 -1.265,1.707 l -0.727,9.283 c -0.035,0.306 0.354,0.448 0.513,0.189 0,0 1.697,-5.121 2.161,-6.519 m -8.419,37.474 c -4.157,-7.1 -3.505,-17.077 -2.316,-23.02 l 0.007,-0.037 c 0.039,-0.193 -0.201,-0.283 -0.348,-0.122 l -0.035,0.04 c -2.072,2.315 -5.589,7.06 -6.551,8.401 -0.192,0.268 -0.274,0.169 -0.282,-0.056 -0.073,-2.166 -0.187,-12.712 5.846,-27.038 0.074,-0.176 -0.009,-0.378 -0.27,-0.199 -7.4,5.087 -11.065,15.17 -11.98,17.874 -0.065,0.193 -0.113,0.222 -0.154,0.215 -0.052,-0.009 -0.07,-0.061 -0.067,-0.237 0.015,-1.569 0.231,-5.591 1.808,-10.637 0.173,-0.552 0.017,-0.855 -0.365,-0.228 -2.07,3.401 -5.893,10.852 -5.893,21.169 0,1.778 0.076,7.421 2.327,13.681 0.037,0.105 0.087,0.273 -0.041,0.539 -0.041,0.084 -0.094,0.183 -0.152,0.297 -0.881,1.713 -3.476,6.669 -3.768,9.393 -0.115,1.074 0.132,0.99 0.625,0.202 1.328,-2.123 2.803,-4.097 5.045,-6.105 0.069,-0.061 0.139,-0.097 0.196,0.01 0.643,1.196 1.211,2.204 1.802,3.048 0.211,0.303 -0.469,0.835 -0.688,1.045 -0.264,0.255 -0.519,0.595 -0.486,1.361 0.163,3.854 -1.901,6.136 -3.392,7.425 -1.2,1.04 -3.033,-0.098 -3.822,-0.654 -0.141,-0.099 -0.34,-0.007 -0.357,0.17 -0.192,1.85 1.42,4.436 3.454,4.436 2.177,0 7.514,-4.575 8.709,-5.557 0.638,-0.523 0.595,-1.848 0.418,-2.971 -0.003,-0.021 -0.009,-0.041 -0.01,-0.061 -0.003,-0.045 0.042,-0.079 0.093,-0.038 0.011,0.009 0.024,0.017 0.038,0.028 0.68,0.505 3.517,3.152 3.661,3.29 2.093,2.007 6.017,5.097 8.826,6.597 -0.018,-0.021 -0.036,-0.044 -0.054,-0.065 3.066,1.651 6.397,2.845 9.915,3.484 1.023,0.186 2.073,-0.103 2.859,-0.806 1.247,-1.113 2.537,-2.304 2.986,-2.719 0.095,-0.089 0.238,-0.089 0.335,-0.003 l 3.163,2.804 c 0.675,0.597 1.563,0.882 2.442,0.761 C 15.385,21.872 15.03,10.388 11.159,9.177 7.266,7.959 2.039,6.743 -0.874,7.121 c -2.635,0.34 -3.315,2.182 -3.537,3.325 -0.102,0.526 -0.712,0.747 -1.119,0.416 L -7.952,9.158 C -8.175,8.977 -8.442,8.882 -8.711,8.873 -8.985,8.861 -9.263,8.942 -9.5,9.113 l -2.117,1.532 c -0.558,0.404 -1.333,0.095 -1.481,-0.593 -0.206,-0.956 -0.831,-2.087 -2.529,-2.697 -2.966,-1.064 -11.261,1.352 -12.747,1.774 -0.199,0.056 -0.324,0.054 -0.415,0.009 -0.057,-0.029 -0.114,-0.058 -0.171,-0.088 -2.747,-1.471 -4.588,-5.277 -5.273,-6.897 -0.1,-0.235 0.151,-0.464 0.364,-0.333 l 1.484,0.912 c 0.943,0.579 2.13,0.528 3.02,-0.135 0.846,-0.631 2.022,-1.532 2.771,-2.388 0.068,-0.077 0.093,-0.099 0.151,-0.176 0.122,-0.169 0.026,-0.356 -0.025,-0.444 m 61.353,8.728 c 0.769,2.688 1.187,6.18 1.213,7.41 0.045,2.15 -0.616,4.544 -2.18,6.28 -1.394,1.543 -3.203,2.394 -5.093,2.394 -2.379,0 -5.178,-1.538 -10.184,-5.635 -0.15,-0.123 -0.263,-0.213 -0.449,-0.214 -0.184,-0.001 -0.297,0.105 -0.449,0.243 -2.386,2.141 -5.825,4.748 -8.621,6.24 l -0.147,0.087 c -2.851,1.689 -6.537,3.084 -11.204,3.957 -0.061,0.012 -0.123,0.022 -0.184,0.03 -0.308,0.042 -0.618,0.063 -0.925,0.063 -1.67,0 -3.351,-0.617 -4.635,-1.755 l -0.554,-0.5 c 0,0 -0.101,-0.11 -0.193,-0.11 -0.094,-10e-4 -0.115,0.045 -0.187,0.109 -0.139,0.126 -0.306,0.284 -0.446,0.409 -1.341,1.199 -2.989,1.84 -4.747,1.84 -0.433,0 -0.87,-0.039 -1.308,-0.119 -3.648,-0.662 -7.182,-1.872 -10.512,-3.597 -0.159,-0.06 -0.317,-0.131 -0.471,-0.213 -2.808,-1.499 -6.438,-4.274 -8.843,-6.441 -0.153,-0.138 -0.266,-0.244 -0.451,-0.243 -0.185,0.001 -0.299,0.091 -0.449,0.214 -5.005,4.097 -7.804,5.635 -10.183,5.635 -1.891,0 -3.7,-0.851 -5.093,-2.394 -1.565,-1.736 -2.225,-4.13 -2.18,-6.28 0.025,-1.23 0.445,-4.722 1.213,-7.41 0.771,-2.703 1.818,-5.46 3.483,-8.759 0.032,-0.064 0.052,-0.123 0.057,-0.198 0.004,-0.086 -0.01,-0.149 -0.034,-0.227 -1.33,-4.231 -2.029,-8.829 -2.029,-13.419 0,-6.145 1.295,-15.428 7.463,-24.748 0.733,-1.106 1.953,-1.72 3.205,-1.72 0.577,0 1.162,0.13 1.709,0.403 0.003,10e-4 0.006,0.003 0.008,0.004 0.073,0.037 0.123,0.074 0.192,0.065 0.07,-0.008 0.098,-0.043 0.137,-0.089 1.743,-2.113 3.797,-4.081 6.189,-5.626 0.457,-0.295 1.302,-0.842 1.737,-1.171 0.171,-0.129 0.206,-0.161 0.23,-0.228 0.034,-0.098 0.022,-0.233 0.017,-0.335 -0.05,-0.96 0.262,-1.915 0.889,-2.664 0.238,-0.283 5.526,-8.723 25.273,-8.723 4.172,0 7.762,1.319 8.483,2.591 0.27,0.476 -0.7,0.645 -1.882,1.358 -0.143,0.086 -0.221,0.174 -0.21,0.252 0.012,0.077 0.108,0.12 0.284,0.173 2.365,0.712 5.743,2.444 7.434,3.454 1.303,0.778 2.024,2.218 1.939,3.691 -0.002,0.056 -0.018,0.112 0.011,0.169 0.036,0.07 0.035,0.058 0.136,0.126 0.434,0.292 1.645,0.993 2.161,1.326 2.375,1.532 4.415,3.484 6.152,5.579 0.051,0.063 0.112,0.126 0.171,0.135 0.06,0.007 0.122,-0.028 0.195,-0.064 0.549,-0.277 1.137,-0.408 1.718,-0.408 1.253,0 2.471,0.614 3.204,1.721 6.168,9.321 7.463,18.603 7.463,24.751 0,1.842 -0.026,7.112 -2.029,13.397 -0.024,0.078 -0.038,0.141 -0.034,0.227 0.004,0.075 0.025,0.134 0.056,0.198 1.666,3.299 2.713,6.056 3.484,8.759"/>
          </g>
          <g
            transform="translate(129.7538,548.5347)"
            id="g972">
            <path
              inkscape:connector-curvature="0"
              id="path974"
              style="fill:#fab41d;fill-opacity:1;fill-rule:nonzero;stroke:none"
              d="M 0,0 H -0.997 V -2.581 H -1.46 V 0 H -2.458 V 0.463 H 0 Z M 3.847,-2.581 H 3.385 V 0 H 3.37 L 2.329,-2.581 H 2.046 L 1.035,0 H 1.02 V -2.581 H 0.558 v 3.044 h 0.758 l 0.875,-2.147 0.904,2.147 h 0.752 z"/>
          </g>
          <g
            transform="translate(139.3891,593.5717)"
            id="g976">
            <path
              inkscape:connector-curvature="0"
              id="path978"
              style="fill:#fab41d;fill-opacity:1;fill-rule:nonzero;stroke:none"
              d="m 0,0 c 2.002,-6.285 2.028,-11.555 2.028,-13.397 0,-6.148 -1.295,-15.43 -7.462,-24.752 -0.734,-1.107 -1.952,-1.72 -3.204,-1.72 -0.581,0 -1.169,0.131 -1.718,0.408 -0.073,0.036 -0.135,0.072 -0.195,0.064 -0.06,-0.009 -0.121,-0.073 -0.172,-0.134 -1.735,-2.095 -3.776,-4.047 -6.151,-5.58 -0.517,-0.334 -1.727,-1.034 -2.162,-1.326 -0.101,-0.068 -0.1,-0.056 -0.135,-0.126 -0.03,-0.057 -0.014,-0.113 -0.011,-0.168 0.085,-1.474 -0.636,-2.914 -1.94,-3.692 -1.69,-1.01 -5.069,-2.743 -7.433,-3.454 -0.176,-0.053 -0.272,-0.095 -0.284,-0.173 -0.011,-0.078 0.067,-0.165 0.209,-0.252 1.183,-0.713 2.152,-0.881 1.883,-1.358 -0.721,-1.272 -4.311,-2.592 -8.484,-2.592 -19.746,0 -25.034,8.441 -25.272,8.724 -0.627,0.75 -0.939,1.703 -0.89,2.664 0.006,0.102 0.017,0.238 -0.016,0.335 -0.024,0.067 -0.059,0.099 -0.231,0.228 -0.435,0.329 -1.28,0.876 -1.737,1.171 -2.391,1.544 -4.445,3.513 -6.189,5.626 -0.038,0.047 -0.066,0.081 -0.136,0.09 -0.069,0.009 -0.12,-0.029 -0.193,-0.066 -0.002,-0.001 -0.004,-0.002 -0.007,-0.003 -0.547,-0.274 -1.132,-0.404 -1.71,-0.404 -1.252,0 -2.471,0.614 -3.204,1.72 -6.168,9.32 -7.463,18.603 -7.463,24.748 0,4.59 0.698,9.188 2.028,13.419 0.025,0.078 0.039,0.141 0.034,0.227 -0.004,0.075 -0.024,0.134 -0.056,0.198 -1.666,3.299 -2.712,6.057 -3.484,8.759 -0.768,2.689 -1.187,6.18 -1.213,7.41 -0.045,2.151 0.616,4.544 2.181,6.28 1.393,1.544 3.202,2.394 5.092,2.394 2.379,0 5.178,-1.539 10.184,-5.635 0.15,-0.123 0.264,-0.213 0.449,-0.214 0.185,0 0.297,0.105 0.45,0.244 2.406,2.166 6.035,4.941 8.844,6.441 0.154,0.081 0.311,0.152 0.471,0.212 3.33,1.726 6.863,2.935 10.512,3.598 0.437,0.079 0.874,0.118 1.308,0.118 1.758,0 3.406,-0.641 4.747,-1.84 0.139,-0.125 0.307,-0.283 0.446,-0.408 0.072,-0.065 0.092,-0.111 0.187,-0.11 0.092,0 0.193,0.111 0.193,0.111 l 0.554,0.499 c 1.283,1.139 2.964,1.756 4.635,1.755 0.307,0 0.616,-0.02 0.924,-0.063 0.062,-0.008 0.123,-0.019 0.185,-0.03 4.667,-0.874 8.352,-2.268 11.204,-3.957 l 0.147,-0.087 c 2.796,-1.492 6.234,-4.099 8.62,-6.239 0.152,-0.139 0.265,-0.244 0.45,-0.244 0.185,0.001 0.299,0.091 0.449,0.214 5.006,4.096 7.805,5.635 10.184,5.635 1.89,0 3.699,-0.85 5.092,-2.394 1.565,-1.736 2.225,-4.129 2.181,-6.28 C 4.693,15.364 4.274,11.873 3.505,9.184 2.734,6.482 1.687,3.724 0.022,0.425 -0.01,0.361 -0.03,0.302 -0.034,0.227 -0.038,0.141 -0.024,0.078 0,0 m 4.562,8.882 c 0.826,2.886 1.231,6.489 1.255,7.69 0.056,2.674 -0.841,5.239 -2.463,7.037 -1.604,1.778 -3.702,2.758 -5.908,2.758 -2.648,0 -5.531,-1.536 -10.605,-5.66 -2.228,1.962 -5.621,4.585 -8.563,6.156 l -0.126,0.074 c -3.151,1.866 -7.04,3.242 -11.56,4.09 -0.079,0.014 -0.156,0.027 -0.235,0.037 -0.354,0.05 -0.716,0.075 -1.074,0.075 -1.952,0 -3.907,-0.741 -5.364,-2.032 l -0.014,-0.012 c -1.533,1.332 -3.391,2.036 -5.384,2.036 -0.5,0 -1.006,-0.046 -1.504,-0.136 -3.736,-0.679 -7.357,-1.915 -10.764,-3.675 -0.185,-0.071 -0.366,-0.154 -0.54,-0.247 -3.027,-1.615 -6.61,-4.417 -8.805,-6.366 -5.075,4.124 -7.957,5.66 -10.605,5.66 -2.206,0 -4.304,-0.98 -5.908,-2.758 -1.622,-1.798 -2.519,-4.363 -2.463,-7.037 0.024,-1.201 0.43,-4.803 1.255,-7.69 0.826,-2.891 1.904,-5.63 3.394,-8.624 0.018,-0.035 0.045,-0.088 0.047,-0.097 0.003,-0.041 0.001,-0.062 -0.023,-0.138 -1.297,-4.243 -1.982,-8.89 -1.982,-13.442 0,-6.296 1.326,-15.806 7.645,-25.354 0.917,-1.386 2.458,-2.214 4.12,-2.214 0.554,0 1.096,0.092 1.625,0.277 1.866,-2.174 3.888,-3.971 6.014,-5.343 0.664,-0.429 1.161,-0.759 1.477,-0.983 -0.005,-1.168 0.403,-2.303 1.153,-3.204 1.543,-2.138 7.983,-9.111 26.113,-9.111 4.364,0 8.422,1.353 9.439,3.149 0.195,0.344 0.24,0.733 0.127,1.093 -0.122,0.39 -0.374,0.644 -0.697,0.853 2.06,0.835 4.361,2.027 5.803,2.889 1.472,0.879 2.412,2.482 2.48,4.236 0.237,0.145 0.523,0.318 0.749,0.453 l 0.049,0.03 c 0.393,0.236 0.761,0.458 1.002,0.613 2.127,1.374 4.15,3.171 6.014,5.343 0.522,-0.181 1.079,-0.276 1.626,-0.276 1.662,0 3.203,0.827 4.12,2.213 6.319,9.55 7.646,19.061 7.646,25.358 0,1.74 0,7.035 -1.985,13.42 -0.021,0.071 -0.025,0.096 -0.024,0.129 0.005,0.017 0.03,0.069 0.049,0.107 1.491,2.993 2.569,5.732 3.394,8.623"/>
          </g>
          <g
            transform="translate(110.6143,599.2478)"
            id="g980">
            <path
              inkscape:connector-curvature="0"
              id="path982"
              style="fill:#fab41d;fill-opacity:1;fill-rule:nonzero;stroke:none"
              d="m 0,0 c -0.8,0 0.876,-1.777 3.542,-1.777 2.896,0 2.896,3.2 2.896,3.2 C 6.438,2.261 3.352,0 0,0 m -27.027,-1.778 c 2.667,0 4.343,1.778 3.543,1.778 -3.352,0 -6.438,2.261 -6.438,1.423 0,0 0,-3.201 2.895,-3.201 M -1.78,-7.462 c 0.013,-1.107 -0.454,-0.971 -1.317,-0.135 -1.205,1.168 -2.604,1.416 -3.445,1.118 -0.966,-0.34 -2.976,-1.688 -2.883,-4.686 0.002,-0.037 -0.007,-0.075 -0.036,-0.098 -0.019,-0.015 -0.09,-0.015 -0.129,-0.013 -1.164,0.046 -1.334,0.065 -1.733,0.053 -0.399,0.012 -0.601,-0.003 -1.78,-0.053 -0.037,-10e-4 -0.059,-0.004 -0.085,0.013 -0.027,0.019 -0.034,0.048 -0.034,0.079 0.104,3.01 -1.914,4.364 -2.882,4.705 -0.841,0.298 -2.24,0.05 -3.445,-1.118 -0.863,-0.836 -1.328,-0.972 -1.316,0.135 0.006,0.554 0.356,1.825 0.824,2.653 0.468,0.829 1.509,4.018 7.541,4.018 0.849,0 1.873,0.002 2.355,0 6.031,0 7.073,-3.189 7.541,-4.018 0.468,-0.828 0.819,-2.099 0.824,-2.653 m 5.181,-22.244 c 0.923,2.297 3.873,10.859 -0.123,18.088 -0.794,1.436 -1.47,2.668 -2.055,3.735 -0.024,0.046 -0.043,0.089 -0.07,0.136 -1.147,2.087 -2.051,3.804 -2.775,5.019 -0.612,1.052 -0.944,1.502 -1.303,1.798 l 0.004,-0.015 c -0.006,0.004 -0.012,0.01 -0.017,0.015 -0.852,0.699 -2.003,2.025 -8.38,2.026 0,0 -0.001,0 -0.001,0 -10e-4,0 -0.002,0 -0.004,0 -10e-4,0 -0.002,0 -0.004,0 v 0 c -6.377,-0.001 -7.529,-1.327 -8.38,-2.026 -0.851,-0.701 -1.543,-2.258 -6.203,-10.688 -3.995,-7.229 -1.045,-15.791 -0.122,-18.088 0.073,-0.18 0.328,-0.153 0.364,0.04 0.425,2.305 0.738,8.539 3.474,12.681 0.614,0.929 1.646,2.051 2.45,2.51 1.548,0.884 4.453,1.081 8.429,1.078 4.068,-0.003 7.001,-0.198 8.446,-1.09 0.799,-0.493 1.822,-1.576 2.431,-2.498 2.736,-4.142 3.049,-10.376 3.475,-12.681 0.035,-0.193 0.291,-0.22 0.364,-0.04 m -34.783,1.429 c 0.04,-0.193 -0.2,-0.283 -0.348,-0.121 l -0.034,0.038 c -2.074,2.317 -5.589,7.06 -6.552,8.402 -0.192,0.269 -0.273,0.169 -0.281,-0.056 -0.073,-2.166 -0.187,-12.713 5.846,-27.038 0.073,-0.176 -0.01,-0.378 -0.271,-0.198 -7.399,5.086 -11.065,15.168 -11.979,17.872 -0.066,0.193 -0.113,0.223 -0.154,0.216 -0.052,-0.009 -0.07,-0.06 -0.068,-0.238 0.016,-1.568 0.232,-5.589 1.809,-10.637 0.172,-0.551 0.017,-0.854 -0.365,-0.227 -2.07,3.401 -5.893,10.853 -5.893,21.168 0,1.779 0.075,7.422 2.326,13.682 0.038,0.106 0.088,0.273 -0.041,0.539 -0.041,0.084 -0.093,0.183 -0.152,0.297 -0.881,1.713 -3.476,6.669 -3.768,9.393 -0.114,1.075 0.132,0.989 0.625,0.202 1.329,-2.123 2.803,-4.097 5.045,-6.105 0.069,-0.062 0.139,-0.097 0.196,0.01 0.644,1.195 1.211,2.204 1.802,3.048 0.212,0.302 -0.469,0.834 -0.688,1.045 -0.263,0.255 -0.518,0.596 -0.485,1.361 0.163,3.853 -1.902,6.136 -3.392,7.426 -1.201,1.039 -3.033,-0.098 -3.822,-0.655 -0.141,-0.099 -0.34,-0.006 -0.358,0.17 -0.191,1.851 1.421,4.437 3.455,4.437 2.177,0 7.513,-4.576 8.709,-5.557 0.637,-0.524 0.595,-1.849 0.417,-2.973 -0.003,-0.02 -0.008,-0.04 -0.009,-0.059 -0.004,-0.046 0.041,-0.08 0.092,-0.04 0.012,0.01 0.025,0.018 0.039,0.028 0.68,0.506 3.516,3.153 3.66,3.29 2.094,2.008 6.018,5.098 8.826,6.598 -0.018,-0.022 -0.035,-0.044 -0.054,-0.064 3.067,1.65 6.398,2.845 9.915,3.484 1.023,0.185 2.073,-0.104 2.86,-0.807 1.247,-1.113 2.537,-2.304 2.985,-2.72 0.096,-0.089 0.238,-0.089 0.335,-0.002 l 3.164,2.803 c 0.674,0.598 1.562,0.883 2.442,0.762 C 12.781,17.063 12.426,5.579 8.554,4.367 4.661,3.15 -0.565,1.935 -3.478,2.312 -6.113,2.652 -6.794,4.494 -7.016,5.637 -7.117,6.163 -7.727,6.384 -8.134,6.053 l -2.423,-1.704 c -0.223,-0.181 -0.49,-0.276 -0.758,-0.286 -0.275,-0.01 -0.553,0.069 -0.79,0.241 l -2.117,1.532 c -0.557,0.404 -1.332,0.095 -1.481,-0.594 -0.206,-0.955 -0.831,-2.086 -2.528,-2.696 -2.967,-1.064 -11.261,1.352 -12.748,1.774 -0.199,0.056 -0.323,0.054 -0.415,0.008 -0.056,-0.028 -0.114,-0.057 -0.17,-0.087 -2.748,-1.472 -4.589,-5.277 -5.274,-6.898 -0.1,-0.235 0.151,-0.463 0.364,-0.332 l 1.484,0.912 c 0.944,0.58 2.131,0.528 3.02,-0.135 0.847,-0.631 2.023,-1.532 2.772,-2.388 0.067,-0.077 0.093,-0.098 0.15,-0.176 0.123,-0.169 0.027,-0.356 -0.025,-0.443 -4.156,-7.102 -3.504,-17.078 -2.317,-23.021 z m 40.186,0.698 c 1.114,6.047 1.633,15.588 -2.478,22.45 -0.021,0.034 -0.056,0.134 -0.045,0.208 0.009,0.054 0.031,0.113 0.097,0.199 0.726,0.921 1.891,1.947 2.883,2.529 2.592,1.518 6.283,-0.023 7.316,-4.166 1.281,-5.133 -2.657,-17.643 -7.407,-21.335 l -0.07,-0.06 c -0.189,-0.157 -0.34,-0.077 -0.306,0.115 z M 5.87,-52.823 c -0.033,-0.021 -0.067,-0.042 -0.099,-0.063 -5.796,-3.642 -11.227,-4.409 -16.659,-4.409 -0.168,0 -0.371,-0.093 -0.038,-0.296 0.91,-0.553 3.715,-1.725 4.652,-2.251 0.311,-0.175 0.11,-0.233 -0.032,-0.233 -13.731,-0.023 -20.477,5.61 -21.949,7.018 -0.21,0.202 -0.213,0.2 -0.257,0.349 -0.043,0.149 0.063,0.494 0.063,0.494 l 2.753,12.075 c 0.055,0.241 0.392,0.221 0.42,-0.024 l 0.213,-6.99 c 0.176,-1.536 1.152,-2.839 2.534,-3.417 3.477,-1.452 7.272,-2.256 11.248,-2.256 3.95,0 7.721,0.793 11.179,2.228 1.426,0.592 2.547,1.902 2.611,3.52 l 0.205,6.915 c 0.028,0.245 0.364,0.265 0.42,0.024 l 2.805,-12.306 c 0,0 0.094,-0.278 -0.095,-0.395 m -5.661,16.664 c 0.159,0.26 0.548,0.117 0.513,-0.189 l -0.722,-9.237 c -0.091,-0.794 -0.592,-1.478 -1.309,-1.768 -3.171,-1.282 -6.517,-1.929 -9.98,-1.929 -3.478,0 -6.838,0.653 -10.021,1.945 -0.693,0.281 -1.177,0.941 -1.265,1.707 l -0.728,9.282 c -0.035,0.306 0.356,0.449 0.514,0.189 0,0 1.697,-5.119 2.161,-6.518 0.464,-1.4 2.159,-2.389 3.691,-2.764 1.813,-0.444 3.704,-0.679 5.648,-0.679 1.922,0 3.794,0.231 5.59,0.666 1.569,0.38 3.353,1.356 3.779,2.827 0.315,1.09 2.129,6.468 2.129,6.468 m 29.498,47.52 c 0.191,1.85 -1.42,4.436 -3.454,4.436 -2.178,0 -7.463,-4.641 -8.71,-5.557 -0.943,-0.692 -1.166,-2.265 -0.393,-3.115 0,0 1.199,-1.457 2.095,-2.863 0.305,-0.48 0.629,-1.068 0.815,-1.422 0.694,-1.322 1.168,-0.599 1.279,0.615 0.023,0.251 0.093,0.794 0.096,1.048 0.041,3.936 2.618,6.134 4.092,7.342 1.328,1.09 3.083,-0.17 3.822,-0.654 0.221,-0.145 0.34,-0.007 0.358,0.17 m -40.947,-28.185 c 2.939,0 5.477,-0.545 6.949,-0.954 1.145,-0.318 1.592,-1.09 1.798,-2.036 0.17,-0.777 0.904,-7.019 0.904,-7.019 0.028,-0.248 -0.287,-0.363 -0.415,-0.152 0,0 -0.91,2.743 -1.633,4.928 -0.551,1.666 -1.856,2.265 -3.093,2.568 -1.464,0.358 -2.991,0.366 -4.561,0.366 h 10e-4 c -1.569,0 -3.097,-0.008 -4.561,-0.366 -1.238,-0.303 -2.542,-0.902 -3.093,-2.568 -0.723,-2.185 -1.633,-4.928 -1.633,-4.928 -0.128,-0.211 -0.443,-0.096 -0.415,0.152 0,0 0.734,6.242 0.904,7.019 0.207,0.946 0.653,1.718 1.798,2.036 1.471,0.409 4.011,0.954 6.949,0.954 z"/>
          </g>
        </g>
      </g>
    </g>
  </g>
</svg>
